<?xml version="1.0" encoding="UTF-8" standalone="no"?>
<!-- Created with Inkscape (http://www.inkscape.org/) -->

<svg
   version="1.1"
   id="svg1074"
   xml:space="preserve"
   width="682.66669"
   height="682.66669"
   viewBox="0 0 682.66669 682.66669"
   xmlns="http://www.w3.org/2000/svg"
   xmlns:svg="http://www.w3.org/2000/svg"><defs
     id="defs1078"><clipPath
       clipPathUnits="userSpaceOnUse"
       id="clipPath1088"><path
         d="M 0,512 H 512 V 0 H 0 Z"
         id="path1086" /></clipPath></defs><g
     id="g1080"
     transform="matrix(1.3333333,0,0,-1.3333333,0,682.66667)"><g
       id="g1082"><g
         id="g1084"
         clip-path="url(#clipPath1088)"><g
           id="g1090"
           transform="translate(274.6174,495.5569)"><path
             d="m 0,0 v 0 c 15.071,11.848 37.229,6.79 45.667,-10.423 v 0 c 6.117,-12.479 19.977,-19.154 33.547,-16.156 v 0 c 18.719,4.136 36.488,-10.035 36.622,-29.205 v 0 c 0.097,-13.897 9.688,-25.924 23.215,-29.111 v 0 c 18.66,-4.396 28.521,-24.873 20.324,-42.202 v 0 c -5.942,-12.563 -2.519,-27.561 8.286,-36.302 v 0 c 14.904,-12.057 14.904,-34.784 0,-46.841 v 0 c -10.805,-8.74 -14.228,-23.738 -8.286,-36.301 v 0 c 8.197,-17.33 -1.664,-37.806 -20.324,-42.202 v 0 c -13.527,-3.187 -23.118,-15.214 -23.215,-29.112 v 0 c -0.134,-19.17 -17.903,-33.34 -36.622,-29.205 v 0 c -13.57,2.998 -27.43,-3.676 -33.547,-16.155 v 0 C 37.229,-380.429 15.071,-385.486 0,-373.638 v 0 c -10.926,8.589 -26.309,8.589 -37.235,0 v 0 c -15.071,-11.848 -37.228,-6.791 -45.666,10.423 v 0 c -6.118,12.479 -19.978,19.153 -33.548,16.155 v 0 c -18.719,-4.135 -36.488,10.035 -36.622,29.205 v 0 c -0.097,13.898 -9.688,25.925 -23.215,29.112 v 0 c -18.66,4.396 -28.521,24.872 -20.324,42.202 v 0 c 5.943,12.563 2.519,27.561 -8.285,36.301 v 0 c -14.905,12.057 -14.905,34.784 0,46.841 v 0 c 10.804,8.741 14.228,23.739 8.285,36.302 v 0 c -8.197,17.329 1.664,37.806 20.324,42.202 v 0 c 13.527,3.187 23.118,15.214 23.215,29.111 v 0 c 0.134,19.17 17.903,33.341 36.622,29.205 v 0 c 13.57,-2.998 27.43,3.677 33.548,16.156 v 0 C -74.463,6.79 -52.306,11.848 -37.235,0 V 0 C -26.309,-8.589 -10.926,-8.589 0,0 Z"
             style="fill:none;stroke:#000000;stroke-width:20;stroke-linecap:round;stroke-linejoin:round;stroke-miterlimit:10;stroke-dasharray:none;stroke-opacity:1"
             id="path1092" /></g><g
           id="g1094"
           transform="translate(394.5667,189.198)"><path
             d="m 0,0 77.281,-133.855 -62.089,16.844 -16.456,-62.193 -71.43,123.72"
             style="fill:none;stroke:#000000;stroke-width:20;stroke-linecap:round;stroke-linejoin:round;stroke-miterlimit:10;stroke-dasharray:none;stroke-opacity:1"
             id="path1096" /></g><g
           id="g1098"
           transform="translate(117.4334,189.198)"><path
             d="m 0,0 -77.281,-133.855 62.089,16.844 16.456,-62.193 71.43,123.72"
             style="fill:none;stroke:#000000;stroke-width:20;stroke-linecap:round;stroke-linejoin:round;stroke-miterlimit:10;stroke-dasharray:none;stroke-opacity:1"
             id="path1100" /></g><g
           id="g1102"
           transform="translate(256,277.468)"><path
             d="m 0,0 -47.578,-34.353 17.969,55.865 -47.374,34.807 h 58.684 L 0,112.077 18.299,56.319 H 76.983 L 29.609,21.512 47.578,-34.353 Z"
             style="fill:none;stroke:#000000;stroke-width:20;stroke-linecap:round;stroke-linejoin:round;stroke-miterlimit:10;stroke-dasharray:none;stroke-opacity:1"
             id="path1104" /></g><g
           id="g1106"
           transform="translate(300.3218,186.489)"><path
             d="m 0,0 c 49.975,18.122 85.678,66.016 85.678,122.249 0,71.797 -58.203,130 -130,130 -71.797,0 -130,-58.203 -130,-130 0,-56.23 35.7,-104.122 85.671,-122.246"
             style="fill:none;stroke:#000000;stroke-width:20;stroke-linecap:round;stroke-linejoin:round;stroke-miterlimit:10;stroke-dasharray:none;stroke-opacity:1"
             id="path1108" /></g><g
           id="g1110"
           transform="translate(256,178.7378)"><path
             d="M 0,0 V 0"
             style="fill:none;stroke:#000000;stroke-width:20;stroke-linecap:round;stroke-linejoin:round;stroke-miterlimit:10;stroke-dasharray:none;stroke-opacity:1"
             id="path1112" /></g></g></g></g></svg>
