<svg id="Capa_2" enable-background="new 0 0 453.54 453.54" viewBox="0 0 453.54 453.54" xmlns="http://www.w3.org/2000/svg"><g><g><g><path d="m226.77 427.325c-2.049 0-4.015-.814-5.464-2.263l-184.525-184.527c-23.72-23.719-36.782-55.255-36.782-88.798 0-33.544 13.063-65.08 36.782-88.799 48.964-48.964 128.633-48.964 177.596 0l12.394 12.393 12.394-12.393c48.961-48.964 128.631-48.964 177.595 0 23.72 23.719 36.782 55.255 36.782 88.799 0 33.543-13.063 65.079-36.782 88.798l-184.526 184.527c-1.449 1.448-3.415 2.263-5.464 2.263zm-101.191-385.662c-28.2 0-56.401 10.735-77.869 32.203-20.801 20.799-32.256 48.455-32.256 77.87s11.455 57.07 32.256 77.869l179.06 179.064 179.061-179.063c20.801-20.799 32.256-48.455 32.256-77.869 0-29.415-11.455-57.071-32.256-77.87-42.937-42.937-112.802-42.938-155.738 0l-17.859 17.856c-3.017 3.017-7.91 3.017-10.927 0l-17.858-17.856c-21.469-21.469-49.67-32.204-77.87-32.204z" fill="#76529d"/></g></g><g><g><path d="m226.77 331.072c-2.049 0-4.015-.814-5.464-2.263l-94.038-94.038c-12.804-12.804-19.855-29.827-19.855-47.934 0-18.106 7.052-35.13 19.855-47.934 26.43-26.429 69.435-26.429 95.865 0l3.636 3.637 3.636-3.636c26.43-26.43 69.435-26.43 95.865-.001 12.804 12.804 19.855 29.828 19.855 47.934 0 18.107-7.052 35.13-19.855 47.934l-94.038 94.038c-1.447 1.449-3.413 2.263-5.462 2.263zm-51.57-196.544c-13.402 0-26.801 5.1-37.004 15.303-9.886 9.885-15.329 23.027-15.329 37.005 0 13.979 5.443 27.12 15.329 37.005l88.573 88.575 88.573-88.575c9.886-9.885 15.329-23.026 15.329-37.005 0-13.978-5.443-27.12-15.329-37.005-20.403-20.405-53.605-20.405-74.008 0l-9.101 9.101c-1.449 1.45-3.415 2.264-5.464 2.264s-4.015-.814-5.464-2.264l-9.101-9.102c-10.2-10.2-23.604-15.302-37.004-15.302z" fill="#76529d"/></g></g><g><g><path d="m40.797 159.113c-4.268 0-7.727-3.46-7.727-7.727 0-24.467 9.528-47.469 26.83-64.771 17.299-17.3 40.301-26.828 64.768-26.828 4.268 0 7.727 3.46 7.727 7.727 0 4.268-3.46 7.727-7.727 7.727-20.338 0-39.459 7.92-53.839 22.302-14.383 14.382-22.304 33.505-22.304 53.843-.001 4.267-3.46 7.727-7.728 7.727z" fill="#76529d"/></g><g><path d="m44.554 184.001c-3.298 0-6.352-2.127-7.379-5.443-.533-1.725-1.025-3.493-1.458-5.257-1.02-4.144 1.513-8.329 5.658-9.349s8.33 1.513 9.349 5.658c.361 1.469.771 2.941 1.215 4.377 1.262 4.077-1.02 8.405-5.096 9.668-.762.235-1.532.346-2.289.346z" fill="#76529d"/></g></g></g></svg>