<?xml version="1.0" encoding="UTF-8"?>
<svg id="Layer_2" data-name="Layer 2" xmlns="http://www.w3.org/2000/svg" viewBox="0 0 451.21 514.84">
  <defs>
    <style>
      .cls-1 {
        fill: #6a24dc;
      }
    </style>
  </defs>
  <g id="Layer_1-2" data-name="Layer 1">
    <g>
      <path class="cls-1" d="M450.87,372.65c-1.79-9.54-4.38-20.92-8.08-32.87-15.63-50.38-38.84-72.46-55.56-82.12-16.7-9.64-47.29-18.64-98.23-6.76-12.64,2.95-24.11,6.64-33.39,10.03l.88,.73c13.69,11.42,33.39,29.74,49.5,52.16,20.17,28.06,30.4,56.21,30.4,83.68,0,3.37-.15,6.76-.46,10.16,17.17,3.2,39.93,3.38,69.61-3.34,12.2-2.76,23.35-6.21,32.51-9.44,9.18-3.23,14.63-12.67,12.84-22.24h0Z"/>
      <path class="cls-1" d="M237.58,285.19l-.18,1.06c-2.24,12.91-5.19,25.5-8.77,37.42-9.95,33.07-29.99,77.22-68.96,99.72-2.94,1.7-5.98,3.25-9.11,4.68,12.19,34.57,41.75,64.46,62.16,81.99,7.39,6.35,18.3,6.39,25.7,.05,26.28-22.54,67.78-65.59,67.78-112.6s-42.43-90.38-68.62-112.31Z"/>
      <path class="cls-1" d="M245.23,232.6c12.4-4.53,24.81-8.26,36.9-11.08,18.38-4.28,35.9-6.46,52.09-6.46,26.24,0,49.14,5.54,68.08,16.47,2.73,1.58,5.6,3.4,8.55,5.5,11.36-13.27,22.91-32.9,31.93-61.97,3.71-11.95,6.3-23.33,8.08-32.87,1.79-9.57-3.66-19.01-12.84-22.24-9.16-3.22-20.31-6.67-32.51-9.44-51.45-11.65-82.18-2.59-98.9,7.06-16.78,9.69-39.97,31.83-55.15,82.28-3.68,12.24-6.17,23.77-7.84,33.33l1.6-.59Z"/>
      <path class="cls-1" d="M213.91,227.98c2.22-12.7,5.14-25.09,8.67-36.82,9.95-33.07,29.99-77.22,68.96-99.72,2.94-1.7,5.99-3.25,9.13-4.69-12.16-34.53-41.75-64.44-62.19-81.98-7.39-6.34-18.3-6.39-25.7-.05-26.28,22.54-67.78,65.59-67.78,112.6s42.44,90.38,68.62,112.31l.29-1.66Z"/>
      <path class="cls-1" d="M194.25,252.77c-13.65-11.43-33.27-29.75-49.29-52.13-19.99-27.93-30.13-55.96-30.13-83.3,0-3.37,.15-6.76,.46-10.16-17.17-3.2-39.93-3.38-69.61,3.34-12.2,2.76-23.35,6.21-32.51,9.44-9.18,3.23-14.63,12.67-12.84,22.24,1.79,9.54,4.38,20.92,8.08,32.87,15.63,50.38,38.84,72.46,55.56,82.12,16.7,9.64,47.29,18.64,98.23,6.76,12.64-2.95,24.11-6.64,33.39-10.03l-1.36-1.14Z"/>
      <path class="cls-1" d="M205.97,282.24c-12.4,4.54-24.81,8.26-36.9,11.08-18.38,4.28-35.9,6.46-52.08,6.46h0c-26.24,0-49.14-5.54-68.08-16.47-2.73-1.58-5.6-3.4-8.55-5.5-11.36,13.27-22.91,32.9-31.93,61.97-3.71,11.95-6.3,23.33-8.08,32.87-1.79,9.57,3.66,19.01,12.84,22.24,9.16,3.22,20.31,6.67,32.51,9.44,51.45,11.65,82.18,2.59,98.9-7.06,16.78-9.69,39.97-31.83,55.15-82.28,3.68-12.23,6.17-23.77,7.84-33.33l-1.61,.59Z"/>
    </g>
  </g>
</svg>