<?xml version="1.0" encoding="UTF-8"?>
<svg id="Layer_2" data-name="Layer 2" xmlns="http://www.w3.org/2000/svg" viewBox="0 0 510.72 510.69">
  <defs>
    <style>
      .cls-1 {
        fill: #6a24dc;
      }
    </style>
  </defs>
  <g id="Layer_1-2" data-name="Layer 1">
    <g>
      <path class="cls-1" d="M45.81,336.65l78.1,149.7,67.33-28.77L80.71,254.94l-34.9,81.71Z"/>
      <path class="cls-1" d="M4.5,433.34c-15.59,36.49,11.23,77.35,51.07,77.35,7.54,0,14.88-1.51,21.81-4.47l18.92-8.08L30.6,372.22l-26.1,61.11Z"/>
      <path class="cls-1" d="M116.35,171.49l-20.68,48.42,123.2,225.87,120.33-51.4c-83.04-29.55-193.35-139.67-222.86-222.89h0Z"/>
      <path class="cls-1" d="M324.59,273.91c-5.84-5.84-5.84-15.32,0-21.17l36.59-36.58c-19.23-23.19-42.3-46.45-66.62-66.62l-36.58,36.59c-5.81,5.81-15.3,5.87-21.17,0-5.84-5.84-5.84-15.32,0-21.17l33.89-33.88c-32.73-23.54-92.97-58.63-121.67-29.95-33.13,33.14,15.06,116.01,79.79,180.76,50.26,50.26,111.45,90.55,151.82,90.55,11.62,0,21.52-3.34,28.94-10.75,28.65-28.68-6.35-88.85-29.95-121.67l-33.88,33.89c-5.81,5.81-15.3,5.87-21.17,0Z"/>
      <path class="cls-1" d="M307.98,136.12c26.91-26.91,31.12-69.42,10.01-101.09-14.41-21.61-41.03-31.91-66.25-25.6-8.01,2-12.89,10.12-10.88,18.14,2,8.01,10.12,12.89,18.14,10.88,12.97-3.24,26.67,2.05,34.09,13.19,13.22,19.83,10.58,46.47-6.27,63.33l-16.12,16.12c7.91,5.68,15.89,11.85,23.85,18.46l13.43-13.43Z"/>
      <path class="cls-1" d="M459.08,217.62c11.13,7.42,16.43,21.13,13.19,34.09-2,8.02,2.87,16.14,10.88,18.14,8.02,2,16.14-2.86,18.14-10.88,6.3-25.22-3.99-51.84-25.6-66.25-31.67-21.11-74.18-16.9-101.09,10.01l-13.43,13.43c6.61,7.96,12.79,15.94,18.46,23.85l16.12-16.12c16.86-16.86,43.5-19.5,63.33-6.27h0Z"/>
      <path class="cls-1" d="M393.63,138.25l75.81-75.81c5.84-5.84,5.84-15.32,0-21.16-5.84-5.84-15.32-5.84-21.16,0l-75.81,75.81c-5.84,5.84-5.84,15.32,0,21.16,5.84,5.84,15.32,5.84,21.16,0Z"/>
      <path class="cls-1" d="M79.83,54.86h8.98v8.98c0,8.26,6.7,14.96,14.96,14.96s14.96-6.7,14.96-14.96v-8.98h8.98c8.26,0,14.96-6.7,14.96-14.96s-6.7-14.96-14.96-14.96h-8.98V14.96c0-8.26-6.7-14.96-14.96-14.96s-14.96,6.7-14.96,14.96v9.97h-8.98c-8.26,0-14.96,6.7-14.96,14.96s6.7,14.96,14.96,14.96Z"/>
      <path class="cls-1" d="M495.76,376.03h-9.97v-8.98c0-8.26-6.7-14.96-14.96-14.96s-14.96,6.7-14.96,14.96v8.98h-8.98c-8.26,0-14.96,6.7-14.96,14.96s6.7,14.96,14.96,14.96h8.98v8.98c0,8.26,6.7,14.96,14.96,14.96s14.96-6.7,14.96-14.96v-8.98h9.97c8.26,0,14.96-6.7,14.96-14.96s-6.7-14.96-14.96-14.96h0Z"/>
      <path class="cls-1" d="M391.05,29.92c8.26,0,14.96-6.7,14.96-14.96S399.31,0,391.05,0s-14.97,6.78-14.97,14.96c0,8.26,6.7,14.96,14.97,14.96Z"/>
      <path class="cls-1" d="M463.86,135.65c0,8.26,6.7,14.96,14.97,14.96s14.96-6.7,14.96-14.96-6.63-14.96-14.97-14.96-14.96,6.7-14.96,14.96Z"/>
    </g>
  </g>
</svg>