<?xml version="1.0" encoding="UTF-8"?>
<svg id="Layer_2" data-name="Layer 2" xmlns="http://www.w3.org/2000/svg" viewBox="0 0 510.03 509.39">
  <defs>
    <style>
      .cls-1 {
        fill: #6a24dc;
      }
    </style>
  </defs>
  <g id="Layer_1-2" data-name="Layer 1">
    <path class="cls-1" d="M338.42,483.69l8.2,24.2-54.8,1.5c-1.6-.1-3.5-.9-4.4-2.4l-52.9-90.2c1-.3,11-3.8,11.7-4l44.9,70.4c1.2,1.9,3.5,2.9,5.7,2.6l35.4-5.8c2.7-.3,5.3,1.2,6.2,3.7h0Zm-167.2-122c-2.6,2.1-3.7,5.6-2.6,8.8l9.4,27.7c1.4,4.3,6,6.5,10.3,5l8.9-3c-2.2-6.6-12.2-35.9-14.6-43-2,.9-10,2.9-11.4,4.5h0Zm61.4-38.8c-2.4,.9-30.2,10.3-33.5,11.4-5.8,1.9-9,7.9-7.5,13.7,.1,.5,.2,.9,.3,1.4,.4,.8,17.4,51.5,17.9,52.3,2.2,5.8,8.8,8.7,14.5,6.7,7.2-2.4,26.5-9,33.5-11.3l-25.2-74.2Zm124.4-96.3c-1.1-3.2-4.7-2.5-7.1-1.4l-8.5,2.9c-2.2,.5-3.7,2.7-2.9,4.8l1.9,5.6c0,.1,27.2,80,27.2,80l29,85.5c.6,1.8,2.7,2.9,4.5,2.2l11.8-4c.9-.3,1.6-1,2.1-1.8,.4-.9,.5-1.8,.2-2.7l-58.2-171.1Zm-114.2,91.2l26.3,77.2,112.4-.3-49.3-145.1c-21.8,16.5-68,51.8-89.4,68.2h0Zm-62.9,28.4c-8.1,2.5-18.4,5.5-21.6,14.4H35.22c-15.7,0-28.5-14.1-28.5-31.5v-124.4H373.42v34.8c-3.6-8.8-4.7-21.5-13.2-25.2-7.5-4-15.4,1-22.8,3.1-8.8,2.6-12.5,12.7-9.1,20.8-21,16.1-74.5,56.9-94.9,72.5l-12,4.1-25.9,8.8c-9.3,3.4-16.1,12.6-15.6,22.6Zm-8.3-21.5l50.7-29.3c9.1-4.8,9-18.9,0-23.8l-50.7-29.3c-8.7-5.5-20.9,1.7-20.6,11.9v58.6c0,4.9,2.6,9.4,6.9,11.9s9.4,2.5,13.7,0h0Zm-5.7-72.5c-1.7-.8-3.4-.1-3.6,2v58.6c.1,1.9,1.8,3,3.6,2l50.7-29.3c1-.6,1.2-1.5,1.2-2s-.2-1.5-1.2-2l-50.7-29.3h0ZM6.72,193.39h31.3l50.8-66H6.72v66ZM168.92,127.39H103.12l-50.8,66H118.12l50.8-66Zm80,0h-65.8l-50.7,66h65.8l50.7-66Zm80.2,0h-65.8l-50.8,66h65.8l50.8-66Zm44.3,0h-30.1l-50.8,66h80.8V127.39h.1Zm-4.9-66.1l-5.5-37c-1.9-15.1-17.4-26.6-32.3-23.9l-51.8,7.7,59.9,57.6,29.7-4.4Zm-43.9,6.5l-59.9-57.7-65,9.7,59.9,57.7,65-9.7Zm-79.2,11.8l-59.9-57.7-65.1,9.7,59.9,57.7,65.1-9.7ZM27.12,45.59C10.42,46.59-2.18,61.69,.32,78.29l5.5,37.1,81.2-12.2L27.12,45.59Zm139.1,45.8l-59.9-57.7-65,9.7,59.9,57.7,65-9.7Zm313.8,184.2c-1-3-4.2-4.5-7.2-3.5l-54.1,18.4c-3,1-4.6,4.2-3.5,7.2,1,3,4.3,4.6,7.2,3.5l54.1-18.4c3-1,4.6-4.3,3.5-7.2Zm-73-29.3l42.4-52.8c4.6-5.8-4.2-12.9-8.8-7.1l-42.4,52.8c-4.7,5.7,4.1,12.8,8.8,7.1Zm98.7,113.1l-65.8-16c-7.2-1.7-9.9,9.2-2.7,11l65.8,16c7.3,1.6,10-9.1,2.7-11Z"/>
  </g>
</svg>