<?xml version="1.0" encoding="UTF-8"?>
<svg id="Layer_2" data-name="Layer 2" xmlns="http://www.w3.org/2000/svg" viewBox="0 0 512 512">
  <defs>
    <style>
      .cls-1 {
        fill: #6a24dc;
      }
    </style>
  </defs>
  <g id="Layer_1-2" data-name="Layer 1">
    <g id="_02-shop" data-name=" 02-shop">
      <g id="Glyph">
        <path class="cls-1" d="M511.91,170.67H0v21.33c0,23.56,19.1,42.67,42.67,42.67H106.67c23.56,0,42.67-19.1,42.67-42.67,0,23.56,19.1,42.67,42.67,42.67h128c23.56,0,42.67-19.1,42.67-42.67,0,23.56,19.1,42.67,42.67,42.67h64c23.56,0,42.67-19.1,42.67-42.67v-21.33h-.09Z"/>
        <path class="cls-1" d="M506.76,149.33L468.51,15.47C465.89,6.31,457.52,0,448,0h-97.71l29.87,149.33h126.6Z"/>
        <path class="cls-1" d="M161.71,0H64c-9.52,0-17.89,6.31-20.51,15.47L5.24,149.33h126.6L161.71,0Z"/>
        <path class="cls-1" d="M306.78,0h-101.56l-29.87,149.33h161.29L306.78,0Z"/>
        <path class="cls-1" d="M405.33,256c-15.75,.01-30.95-5.81-42.67-16.34-11.72,10.53-26.91,16.35-42.67,16.34H192c-15.75,.01-30.95-5.81-42.67-16.34-11.72,10.53-26.91,16.35-42.67,16.34H42.67c-7.27-.02-14.49-1.28-21.33-3.73v238.4c0,11.78,9.55,21.33,21.33,21.33h42.67v-192c0-11.78,9.55-21.33,21.33-21.33h106.67c11.78,0,21.33,9.55,21.33,21.33v192h234.67c11.78,0,21.33-9.55,21.33-21.33V252.27c-6.85,2.46-14.06,3.72-21.33,3.73h-64Zm21.33,128c0,11.78-9.55,21.33-21.33,21.33h-106.67c-11.78,0-21.33-9.55-21.33-21.33v-64c0-11.78,9.55-21.33,21.33-21.33h106.67c11.78,0,21.33,9.55,21.33,21.33v64Z"/>
      </g>
    </g>
  </g>
</svg>