<?xml version="1.0" encoding="UTF-8"?>
<svg id="Layer_2" data-name="Layer 2" xmlns="http://www.w3.org/2000/svg" viewBox="0 0 490.62 510.69">
  <defs>
    <style>
      .cls-1 {
        fill: #6a24dc;
      }
    </style>
  </defs>
  <g id="Layer_1-2" data-name="Layer 1">
    <g>
      <g>
        <path class="cls-1" d="M216.72,283.58H50.88c-13.14,0-23.89,10.75-23.89,23.89v179.33c0,13.14,10.75,23.89,23.89,23.89H219.51c5.62,0,5.62-6.04,5.62-6.04v-212.96s0-8.12-8.41-8.12Z"/>
        <path class="cls-1" d="M439.75,283.58h-165.68c-10.09,0-8.58,10.51-8.58,10.51v210.76s-.08,5.84,5.99,5.84h168.27c13.14,0,23.89-10.75,23.89-23.89v-179.33c0-13.14-10.75-23.89-23.89-23.89Z"/>
      </g>
      <g>
        <path class="cls-1" d="M225.13,142.47s0-8.1-8-8.1H23.89c-13.14,0-23.89,10.75-23.89,23.89v74.58c0,13.14,10.75,23.89,23.89,23.89H217.79c7.35,0,7.35-6.37,7.35-6.37v-107.9h0Z"/>
        <path class="cls-1" d="M466.73,134.38h-193.85c-7.38,0-7.38,7.03-7.38,7.03v109.11s0,6.22,8.98,6.22h192.26c13.14,0,23.89-10.75,23.89-23.89v-74.58c0-13.14-10.75-23.89-23.89-23.89Z"/>
      </g>
      <path class="cls-1" d="M143.87,116.7c-10.93,0-20.92-.87-29.67-2.58-22.24-4.34-37.53-12.8-46.73-25.85-8.25-11.69-10.77-26.11-7.5-42.85C65.68,16.13,85.35,0,115.34,0c6.35,0,13.32,.73,20.72,2.18,18.83,3.68,42.91,14.47,64.42,28.88,36.5,24.44,38.3,39.64,36.48,48.94-2.67,13.67-15.45,23.44-39.07,29.87-15.96,4.34-35.65,6.83-54.03,6.83Zm-28.52-78.41c-11.61,0-15.61,3.24-17.8,14.47-1.79,9.18,.47,12.38,1.21,13.43,3.11,4.4,11.19,8.08,22.78,10.34,6.25,1.22,13.97,1.87,22.33,1.87,18.37,0,34.55-2.78,45.29-5.83,.78-.22,1.99-1.15,.69-1.92-14.04-11.44-39.72-26.71-61.13-30.89-4.99-.97-9.49-1.47-13.37-1.47Z"/>
      <path class="cls-1" d="M347.31,116.7h0c-18.38,0-38.07-2.49-54.03-6.83-23.62-6.43-36.4-16.2-39.07-29.87-1.82-9.3-.01-24.5,36.48-48.94,21.51-14.4,45.59-25.2,64.42-28.88C362.52,.73,369.49,0,375.83,0c30,0,49.67,16.13,55.38,45.42,3.27,16.74,.75,31.16-7.5,42.85-9.21,13.05-24.49,21.51-46.73,25.85-8.75,1.71-18.74,2.58-29.67,2.58Zm-45.68-46.28c-1.24,.72-.64,1.86,0,2.05,10.73,3.09,27.09,5.94,45.67,5.94,8.36,0,16.08-.65,22.33-1.87,11.58-2.26,19.68-5.93,22.78-10.34,.75-1.05,3.01-4.26,1.21-13.43-2.19-11.22-6.18-14.47-17.8-14.47-3.88,0-8.38,.49-13.37,1.47-21.41,4.18-46.79,19.21-60.83,30.65Z"/>
    </g>
  </g>
</svg>